# xmcd
#
# Track frame offsets:
# 150
# 18537
# 30990
# 49762
# 63377
# 77862
# 91535
# 109795
# 123735
# 136500
# 151657
#
# Disc length: 2221 seconds
#
#
# Revision: 3
# Processed by: cddbd v1.4PL0 Copyright (c) Steve Scherf et al.
# Submitted via: FreeRIP 2.52 
#
DISCID=7b08ab0b
DTITLE=Kix Brooks - Kix Brooks
DYEAR=1989
DGENRE=country
TTITLE0=Highways and Heartaches
TTITLE1=Way Up North Around Shrevenport
TTITLE2=There's A Telephone Ringing
TTITLE3=She Does The Walk On By
TTITLE4=The River
TTITLE5=Baby, When Your Heart Breaks Down
TTITLE6=The Story Of My Life
TTITLE7=Sacred Ground
TTITLE8=A Little Magic On My Mind
TTITLE9=I'm On To You
TTITLE10=The Last Rodeo
EXTD=
EXTT0=
EXTT1=
EXTT2=
EXTT3=
EXTT4=
EXTT5=
EXTT6=
EXTT7=
EXTT8=
EXTT9=
EXTT10=
PLAYORDER=
